<svg xmlns="http://www.w3.org/2000/svg" width="50" height="50" fill="none"><path fill="#000" d="M10.515 41.758v-3.593c0-.496-.634-.692-.82-1.151-.057-.14.042-.316.18-.468a.7.7 0 0 1 .45-.206l3.668-.408a.59.59 0 0 1 .227.02l.293.083a.472.472 0 0 1 .081.877.473.473 0 0 0-.261.422v4.649c0 .496.402.898.898.898h5.39a.898.898 0 0 0 .898-.898V16.965a.899.899 0 0 0-.534-.82l-3.143-1.398a.898.898 0 0 0-.73 0L7.904 18.84a.898.898 0 0 0-.533.821v22.098c0 .496.402.898.898.898h1.348a.898.898 0 0 0 .898-.898Zm14.821.227v-5.91a.379.379 0 0 0-.379-.378.378.378 0 0 1-.367-.287l-.02-.082a.486.486 0 0 1 .409-.6l4.428-.577a.485.485 0 0 1 .216.94l-.1.034a.54.54 0 0 0-.37.512v6.348c0 .496.403.898.899.898H40.83a.898.898 0 0 0 .898-.898V9.359c0-.368-.225-.7-.568-.835l-8.754-3.461a.898.898 0 0 0-.667.003L23.202 8.52a.898.898 0 0 0-.561.833v32.631c0 .496.402.898.898.898h.898a.898.898 0 0 0 .899-.898Z"/><path stroke="#000" stroke-linecap="round" stroke-width=".6" d="M4 45.129h41.096"/><path stroke="#fff" stroke-linecap="round" stroke-width=".186" d="M34.766 8.749v28.52"/><path fill="#fff" d="m24.435 11.444 1.797-.674.224 3.368-2.021.45v-3.144Zm.227 5.836 1.796-.674.225 3.368-2.021.45v-3.145Zm0 5.391 1.796-.673.225 3.368-2.021.45V22.67Zm0 5.163h1.572v3.144h-1.572v-3.145ZM28.25 9.871l1.797-.674.224 3.37-2.021.448V9.871Zm.227 5.836 1.796-.674.225 3.369-2.021.45v-3.145Zm0 5.393 1.796-.675.225 3.37-2.021.448v-3.144Zm0 6.288 1.571-.225v3.369h-1.571v-3.144ZM11.19 20.199l-1.571.673.224 2.47 1.348-.448v-2.695Zm.218 4.49-1.572.674.224 2.47 1.348-.45V24.69Zm0 4.495-1.572.674.224 2.47 1.348-.45v-2.694Zm2.7-10.109-1.571.674.224 2.47 1.347-.45v-2.694Zm.218 4.495-1.572.674.224 2.47 1.348-.45V23.57Zm0 4.49-1.572.674.224 2.47 1.348-.45V28.06Z"/><path stroke="#fff" stroke-linecap="round" stroke-width=".186" d="M37.013 8.749v28.52m2.247-28.52v28.52"/></svg>