<svg xmlns="http://www.w3.org/2000/svg" width="50" height="50" fill="none"><path fill="#000" d="M6.872 38.806c0 .658.536 1.194 1.194 1.194h5.355c.658 0 1.194-.536 1.194-1.194v-.741H6.872v.741Zm35.324-11.843c-.757-.704-1.798-1.093-2.934-1.093H9.324c-2.223 0-3.88 1.438-4.106 3.483h38.15c-.1-.944-.5-1.763-1.172-2.39ZM20.552 21h-3.104c-1.625 0-2.948 1.13-2.948 2.519V24l9-.002v-.48c0-1.39-1.323-2.518-2.948-2.518Z"/><path fill="#000" d="M12.98 23.431c0-2.143 1.853-3.887 4.132-3.887h3.334c1.58 0 2.954.838 3.65 2.065.695-1.227 2.07-2.065 3.65-2.065h3.333c2.28 0 4.133 1.744 4.133 3.887V24h3.286l.002-10.319c0-2.03-1.757-3.681-3.914-3.681H13.414C11.255 10 9.5 11.652 9.5 13.681V24h3.48v-.569Z"/><path fill="#000" d="M31 21.029h-3.104c-1.626 0-2.948 1.13-2.948 2.519v.481h9v-.481c0-1.39-1.323-2.519-2.948-2.519Zm3.937 17.777c0 .658.536 1.194 1.194 1.194h5.355c.658 0 1.194-.536 1.194-1.194v-.741h-7.743v.741ZM45.283 31H3.717c-.395 0-.717.283-.717.629v4.742c0 .346.322.629.717.629h41.566c.395 0 .717-.283.717-.629V31.63c0-.348-.322-.629-.717-.629Z"/></svg>