<svg xmlns="http://www.w3.org/2000/svg" width="50" height="50" fill="none"><path fill="#000" d="M39.299 14.139H37.47l-.005.001-.002.005v23.32a2.456 2.456 0 0 0 4.911 0v-20.25a3.076 3.076 0 0 0-3.076-3.076Z"/><path fill="#000" d="M35.009 37.464V11.07A3.068 3.068 0 0 0 31.939 8H11.07A3.07 3.07 0 0 0 8 11.07v27.008a4.297 4.297 0 0 0 4.297 4.297h26.307a.087.087 0 0 0 .088-.088.089.089 0 0 0-.065-.085 4.919 4.919 0 0 1-3.618-4.738ZM12.91 15.366a1.227 1.227 0 0 1 1.228-1.227h4.91a1.228 1.228 0 0 1 1.228 1.227v4.91a1.227 1.227 0 0 1-1.228 1.228h-4.91a1.228 1.228 0 0 1-1.228-1.227v-4.91Zm15.96 20.87H14.173c-.66 0-1.228-.507-1.26-1.168a1.229 1.229 0 0 1 1.226-1.287h14.697c.66 0 1.228.508 1.26 1.169a1.227 1.227 0 0 1-1.225 1.286Zm0-4.91H14.173c-.66 0-1.228-.508-1.26-1.169a1.229 1.229 0 0 1 1.226-1.286h14.697c.66 0 1.228.508 1.26 1.168a1.227 1.227 0 0 1-1.225 1.287Zm0-4.91H14.173c-.66 0-1.228-.509-1.26-1.17a1.229 1.229 0 0 1 1.226-1.286h14.697c.66 0 1.228.508 1.26 1.168a1.227 1.227 0 0 1-1.225 1.287Zm0-4.912h-4.877c-.66 0-1.227-.508-1.26-1.168a1.229 1.229 0 0 1 1.226-1.287h4.876c.66 0 1.228.508 1.26 1.169a1.227 1.227 0 0 1-1.225 1.286Zm0-4.91h-4.877c-.66 0-1.227-.508-1.26-1.169a1.229 1.229 0 0 1 1.226-1.287h4.876c.66 0 1.228.508 1.26 1.169a1.227 1.227 0 0 1-1.225 1.287Z"/></svg>