<svg xmlns="http://www.w3.org/2000/svg" width="50" height="50" fill="none"><path fill="#000" d="M11.58 25.867H6v10.964h5.58c.758 0 1.378-.62 1.378-1.377v-8.21c0-.757-.62-1.377-1.377-1.377Zm0 12.018H6v2.741h5.58c.758 0 1.378-.62 1.378-1.377v-2.53c0 .757-.62 1.166-1.377 1.166Zm31.528-7.59s-7.59 2.74-8.644 3.374c-1.055.632-2.108.421-2.53.21-.422-.21-8.223-2.951-7.38-3.373.844-.422 1.266-.211 4.428.21 3.163.422 4.006-.632 3.584-1.897-1.686 0-6.957-3.163-10.33-2.952-3.375.21-7.17 2.741-7.17 2.741s-.843 8.224-.21 8.434c.632.211 17.921 2.32 17.921 2.32s9.91-6.115 11.596-7.802c1.687-1.687-1.264-1.265-1.264-1.265Zm-.255-10.215v-2.912L31.231 9.002l-5.117 3.593v-1.748H22.78v4.09l-3.175 2.232v2.91l11.626-8.167 11.623 8.169Z"/><path fill="#000" d="M34.886 32.404c.534-.321 2.743-1.182 4.797-1.953V19.308l-8.453-5.94-8.45 5.938v5.29c1.551-.06 3.48.56 5.275 1.248v-3.416h6.352v10.209c.159-.06.319-.136.479-.233Z"/></svg>