<svg xmlns="http://www.w3.org/2000/svg" width="50" height="50" fill="none"><path fill="#000" d="M7.5 39.875c1.763-2.061 6-3.5 6-3.5s-2.49 4.036-1.5 6.5c.618 1.537 2.5 3 2.5 3H5s.85-4.071 2.5-6Zm16.5 0c-1.763-2.061-6-3.5-6-3.5s2.49 4.036 1.5 6.5c-.618 1.537-2.5 3-2.5 3h9.5s-.85-4.071-2.5-6Zm-3-9H10.5s.5 4.5 5 4.5c5.006 0 5.5-4.5 5.5-4.5Z"/><path fill="#000" d="m13 41.375 2-6h1l2 6-2.5 3-2.5-3Z"/><path stroke="#000" d="M9.5 29.375h12"/><path fill="#000" d="M21 27.875H10.5s.48-1.586 1-2.5c.482-.849 1.5-2 1.5-2s.293 2.492 1.5 3c.72.303 1.28.303 2 0 1.207-.508 1.5-3 1.5-3s1.397 1.075 2 2c.574.88 1 2.5 1 2.5Z"/><path fill="#000" d="M14 21.875c.764-.888 2.793-.412 3 0 .207.412-.5 3-.5 3h-2s-.728-2.735-.5-3ZM25.413 10c1.541 0 3.084.008 4.241.023.578.008 1.062.018 1.402.03a9.362 9.362 0 0 1 .524.032.438.438 0 0 1 .064.015.253.253 0 0 1 .183.244v32.25H30V33.1l-.001-.015a1.492 1.492 0 0 0-.052-.295 1.479 1.479 0 0 0-.374-.645c-.205-.205-.532-.347-.833-.437a3.854 3.854 0 0 0-.484-.111l-.022-.003h-4.216a2.01 2.01 0 0 0-.39.192c-.177.106-.372.24-.555.37-.181.13-.348.258-.47.352l-.143.113-.049.04-.003.001-.335-.37.015-.015.045-.047a8.312 8.312 0 0 0 .665-.799c.182-.25.36-.53.491-.809.133-.282.211-.549.211-.778 0-.483-.214-.85-.438-1.104a2.135 2.135 0 0 0-.406-.354l-.024-.017-.006-.003-.82-.467H24.5v-2.958h-2.858c-.065 0-.1.02-.125.041a.313.313 0 0 0-.08.125.736.736 0 0 0-.044.222l-.001.014v.926l-.466-.8-1.75-3-.033-.056-.001-.066v-.035l-.001-.1-.005-.376-.017-1.347-.048-4.095-.071-6.05c0-.137.102-.203.117-.213a.287.287 0 0 1 .13-.046c.032-.005.076-.01.122-.013.096-.007.232-.013.401-.02.34-.011.825-.02 1.403-.029a349.19 349.19 0 0 1 4.24-.023ZM26 25v3h3v-3h-3Zm0-2.625h3v-3h-3v3ZM21 22h3.188v-3H21v3Zm0-5.925h8.65v-3H21v3Zm.72-9.018c.177-.318 7.777-.5 8 0 .225.5 0 1.545 0 1.545h-8s-.175-1.226 0-1.545ZM25 4.375c0-.5 1.5-.5 1.5 0v1.5H25v-1.5ZM44 29.5h-5s.5-2.5-1-4.5-5-1.5-5-1.5V18h3c.122 0 .5 1.5.5 1.5l2.5 1 1.5-.5 2 2-1 1.5 1 2.5 1.5.5v3Zm0 1.5c0-.125-11 0-11 0v2.125h8.5c.56 0 .624 2.5 0 2.5H33v2.5h8.5c1.038 0 1 2.5 0 2.5S33 40.5 33 40.5v2s11 .125 11 0V31Z"/><path fill="#000" d="M28.5 32.875c0-.625-5.5-.625-5.5 0v4.5s1.5.5 2.5 2 1 3 1 3h2v-9.5Zm-7 .5-1.5 2 1.5.5v-2.5Z"/></svg>