<svg xmlns="http://www.w3.org/2000/svg" width="50" height="50" fill="none"><path fill="#000" d="M39.476 6H10.524A4.525 4.525 0 0 0 6 10.524v28.952A4.525 4.525 0 0 0 10.524 44h28.952A4.525 4.525 0 0 0 44 39.476V10.524A4.525 4.525 0 0 0 39.476 6ZM38.12 18.893a.907.907 0 0 1-.905.905.907.907 0 0 1-.904-.905v-3.927L14.965 36.31h3.927c.497 0 .905.408.905.905a.907.907 0 0 1-.905.905h-6.107a.922.922 0 0 1-.905-.905v-6.107c0-.497.407-.905.905-.905.497 0 .905.407.905.905v3.927L35.034 13.69h-3.927a.907.907 0 0 1-.905-.905c0-.498.407-.905.905-.905h6.107a.922.922 0 0 1 .905.905v6.107Z"/></svg>