<svg xmlns="http://www.w3.org/2000/svg" width="50" height="50" fill="none"><path fill="#000" d="M23.397 8.822 8.071 24.354a1.094 1.094 0 0 1-1.564 0 1.128 1.128 0 0 1 0-1.582L21.834 7.24H15.13c-.61 0-1.105-.501-1.105-1.12 0-.62.495-1.12 1.105-1.12h9.372c.61 0 1.105.5 1.105 1.12v9.497c0 .619-.495 1.12-1.105 1.12a1.112 1.112 0 0 1-1.105-1.12V8.822ZM34.2 14.034h9.696c.61 0 1.105.501 1.105 1.12V42.88c0 .62-.494 1.12-1.105 1.12H5.105C4.495 44 4 43.5 4 42.88v-9.476c0-.62.494-1.12 1.105-1.12h8.593v-4.987c0-.62.495-1.12 1.105-1.12h8.594v-5.129c0-.62.494-1.12 1.105-1.12h8.593v-4.776c0-.619.494-1.12 1.105-1.12l-.001.002Z"/></svg>