<svg xmlns="http://www.w3.org/2000/svg" width="50" height="50" fill="none"><path fill="#000" d="M43 37.45c0 3.145-2.405 5.55-5.55 5.55h-25.9C8.405 43 6 40.595 6 37.45v-14.8h37v14.8ZM11 27a1 1 0 0 0-1 1v4a1 1 0 0 0 1 1h5a1 1 0 0 0 1-1v-4a1 1 0 0 0-1-1h-5Zm11 0a1 1 0 0 0-1 1v4a1 1 0 0 0 1 1h5a1 1 0 0 0 1-1v-4a1 1 0 0 0-1-1h-5Zm11 0a1 1 0 0 0-1 1v4a1 1 0 0 0 1 1h5a1 1 0 0 0 1-1v-4a1 1 0 0 0-1-1h-5ZM31.9 6c1.11 0 1.85.74 1.85 1.85V9.7h3.7c3.145 0 5.55 2.405 5.55 5.55v3.7H6v-3.7c0-3.145 2.405-5.55 5.55-5.55h3.7V7.85c0-1.11.74-1.85 1.85-1.85s1.85.74 1.85 1.85V9.7h11.1V7.85c0-1.11.74-1.85 1.85-1.85Z"/></svg>