<svg xmlns="http://www.w3.org/2000/svg" width="50" height="50" fill="none"><path fill="#000" d="M7.857 7.407c0-.373.15-.73.419-.995A1.44 1.44 0 0 1 9.286 6h31.428c.38 0 .742.148 1.01.412s.419.622.419.995c0 .374-.15.732-.419.996a1.44 1.44 0 0 1-1.01.412H36.43c0 .782-.578 1.407-1.3 1.407h-.843v4.35c1.214.323 2.114 1.435 2.114 2.73 0 .979-.514 1.846-1.29 2.35l1.314 1.83h6.413a.735.735 0 0 1 .514.203.713.713 0 0 1 .22.5.694.694 0 0 1-.21.5.715.715 0 0 1-.51.204h-.708v4.222h.694a.734.734 0 0 1 .514.203.712.712 0 0 1 .22.5.713.713 0 0 1-.22.501.735.735 0 0 1-.514.203h-1.454a.684.684 0 0 1-.297.676.753.753 0 0 1-.415.127.71.71 0 0 1-.585-.296l-.365-.506H27.364l-.364.506a.709.709 0 0 1-.586.296.753.753 0 0 1-.414-.127.696.696 0 0 1-.297-.675h-1.397a.735.735 0 0 1-.514-.204.713.713 0 0 1-.22-.5c0-.386.33-.704.734-.704H25V22.89h-.694a.734.734 0 0 1-.514-.203.713.713 0 0 1-.22-.5c0-.386.33-.704.734-.704h6.357l1.314-1.83a2.835 2.835 0 0 1-.946-1.015 2.785 2.785 0 0 1-.345-1.335.71.71 0 0 1 .714-.704c.4 0 .714.31.714.704 0 .506.276.954.687 1.201l.122-.169a.685.685 0 0 1 .113-.14.704.704 0 0 1 .507-.207.71.71 0 0 1 .507.207.692.692 0 0 1 .114.14l.12.17c.412-.248.687-.696.687-1.203 0-.774-.614-1.393-1.4-1.407a.723.723 0 0 1-.6-.324.612.612 0 0 1-.128-.38c0-.056 0-.098.014-.154v-4.814h-.843c-.723 0-1.3-.625-1.3-1.407h-8.571V38.37h1.071c.986 0 1.786.788 1.786 1.76v1.055h17.157C43.73 41.185 45 42.445 45 44H5c0-1.555 1.271-2.815 2.843-2.815h1.443V40.13c0-.972.8-1.76 1.785-1.76h1.072V8.815H9.286a1.44 1.44 0 0 1-1.01-.412 1.397 1.397 0 0 1-.419-.996Zm5.714 4.223v3.083l6.26-3.083h-6.26Zm.883 26.74h6.26v-3.083l-6.26 3.083Zm5.377-4.222h-6.26v3.084l6.26-3.084Zm-5.377-18.296h6.26v-3.084l-6.26 3.084Zm5.377 1.407h-6.26v3.084l6.26-3.084Zm-5.377 4.223h6.26v-3.084l-6.26 3.084Zm5.377 1.407h-6.26v3.084l6.26-3.084Zm-5.377 4.222h6.26v-3.084l-6.26 3.084Zm5.377 1.407h-6.26v3.084l6.26-3.084Zm-5.377 4.223h6.26v-3.084l-6.26 3.084Zm18.949-12.628-.983 1.369h2.246l-.983-1.369a2.905 2.905 0 0 1-.28 0ZM29.65 22.89h-3.22v4.222h.188l3.034-4.222Zm-1.275 4.222H38.71l-3.033-4.222H31.41l-3.033 4.222Zm9.06-4.222 3.033 4.222h.245V22.89h-3.278Z"/></svg>