<svg xmlns="http://www.w3.org/2000/svg" width="50" height="50" fill="none"><path fill="#000" d="M25.217 30.863a6.431 6.431 0 0 0 6.437-6.436 6.43 6.43 0 0 0-6.437-6.436 6.413 6.413 0 0 0-4.548 1.884 6.411 6.411 0 0 0-1.884 4.552 6.43 6.43 0 0 0 6.432 6.436Zm-1.837-9.71a2.853 2.853 0 0 1 1.17-.552v-.79c0-.369.298-.666.667-.666.37 0 .666.297.666.666v.79c.378.085.73.237 1.023.44.5.349.849.845.954 1.413a.668.668 0 0 1-.534.777.671.671 0 0 1-.777-.535c-.038-.212-.186-.411-.403-.56a1.65 1.65 0 0 0-.933-.275c-.399 0-.755.127-1.006.326-.208.166-.34.39-.34.624 0 .233.132.454.34.623.25.204.607.327 1.006.327h.017a2.947 2.947 0 0 1 1.799.624c.518.42.84 1.005.84 1.659 0 .653-.322 1.243-.84 1.658a2.852 2.852 0 0 1-1.171.552v.789a.667.667 0 0 1-1.332 0v-.79a2.92 2.92 0 0 1-1.023-.44c-.5-.348-.853-.845-.955-1.413a.671.671 0 0 1 .535-.776.665.665 0 0 1 .772.534c.038.212.187.412.403.56.246.17.573.276.934.276.398 0 .755-.127 1.005-.327.208-.165.34-.39.34-.623 0-.234-.132-.454-.34-.624-.25-.204-.607-.327-1.005-.327h-.013a2.946 2.946 0 0 1-1.8-.623c-.517-.42-.84-1.006-.84-1.66 0-.652.323-1.242.84-1.658Zm15.899 3.274a1.6 1.6 0 0 1-.764 1.387l-1.133.713a1.638 1.638 0 0 0-.577 2.151l.624 1.192a1.604 1.604 0 0 1-.034 1.587c-.293.5-.78.793-1.358.815l-1.337.055a1.637 1.637 0 0 0-1.574 1.574l-.055 1.344a1.608 1.608 0 0 1-.819 1.358 1.6 1.6 0 0 1-1.583.03l-1.188-.624a1.639 1.639 0 0 0-2.15.573l-.722 1.141c-.31.488-.81.764-1.388.764a1.65 1.65 0 0 1-.568-.098 2.803 2.803 0 0 0-.178-.573c.313-.432.5-.967.5-1.544a2.645 2.645 0 0 0-2.639-2.639H19.68c.212-1.264.178-2.694-.132-3.899a7.742 7.742 0 0 0 5.677 2.465c2.148 0 4.09-.87 5.495-2.278a7.774 7.774 0 0 0 2.266-5.494c0-2.142-.87-4.09-2.278-5.494a7.734 7.734 0 0 0-5.495-2.278c-2.143 0-4.086.87-5.495 2.278a7.745 7.745 0 0 0-2.274 5.494c0 1.002.186 1.956.534 2.834-1.659-1.043-3.852.23-3.572 2.588.017 1.001-.319 1.65-.807 2.198a1.62 1.62 0 0 1-.564-.586 1.604 1.604 0 0 1-.034-1.586l.624-1.184a1.638 1.638 0 0 0-.573-2.151l-1.141-.721a1.607 1.607 0 0 1-.764-1.387c0-.582.276-1.078.768-1.388l1.129-.713a1.638 1.638 0 0 0 .577-2.15l-.624-1.193a1.585 1.585 0 0 1 .034-1.582c.293-.5.776-.797 1.358-.819l1.336-.055a1.644 1.644 0 0 0 1.579-1.574l.055-1.349a1.608 1.608 0 0 1 .819-1.357 1.592 1.592 0 0 1 1.582-.03l1.184.623c.76.4 1.693.153 2.152-.572l.72-1.141c.31-.488.807-.764 1.388-.764.577 0 1.078.276 1.388.764l.713 1.132a1.639 1.639 0 0 0 2.151.577l1.197-.623a1.607 1.607 0 0 1 1.582.034c.5.292.794.776.82 1.357l.05 1.336c.034.857.717 1.54 1.574 1.579l1.345.055c.577.021 1.07.318 1.358.819.289.5.301 1.069.03 1.582l-.624 1.184a1.638 1.638 0 0 0 .573 2.15l1.141.722c.505.314.777.81.777 1.391ZM22.336 37.575h-.276c.717 0 1.303.585 1.303 1.302 0 .717-.59 1.302-1.303 1.302h-.174c.717 0 1.303.586 1.303 1.303s-.586 1.302-1.303 1.302h-.513c.717 0 1.302.586 1.302 1.303s-.585 1.302-1.302 1.302h-7.71c-.216 0-.399-.034-.598-.11l-1.129-.425a1.657 1.657 0 0 0-.131-.042v-9.325a1.73 1.73 0 0 0 .539-.44c1.247-1.52 3.492-2.198 3.402-5.3-.22-1.527 1.24-2.096 2.05-.81.912 1.442.878 4.544.072 6.028h4.468a1.305 1.305 0 0 1 0 2.61Zm-11.864-2.291v9.859a.86.86 0 0 1-.857.857H6.853A.86.86 0 0 1 6 45.143v-9.86c0-.47.386-.852.853-.852h2.762a.86.86 0 0 1 .857.853ZM24.551 6.91V4.666a.667.667 0 0 1 1.332 0V6.91a.667.667 0 0 1-1.332 0Zm8.851 2.015 1.12-1.943a.67.67 0 0 1 .908-.246c.319.183.429.59.246.908l-1.12 1.943a.666.666 0 0 1-1.154-.662Zm9.267 6.199-1.943 1.124a.665.665 0 0 1-.666-1.154l1.943-1.124a.665.665 0 0 1 .908.241.668.668 0 0 1-.242.913ZM14.758 7.648a.664.664 0 0 1 1.15-.666l1.124 1.943a.664.664 0 0 1-1.15.667l-1.124-1.944Zm-4.137 8.354a.666.666 0 0 1-.908.246l-1.944-1.124a.666.666 0 0 1-.246-.908.667.667 0 0 1 .908-.242l1.944 1.124a.66.66 0 0 1 .246.904Z"/></svg>