<svg xmlns="http://www.w3.org/2000/svg" width="50" height="50" fill="none"><path fill="#000" d="M23.414 7.091a8.915 8.915 0 0 0-1.156.32c-3.452 1.19-5.443 4.937-4.498 8.439.279 1.013 1.046 2.481 2.354 4.48a82.785 82.785 0 0 1 3.359 5.57c.523.962.717 1.24.894 1.3.473.168.633.017 1.35-1.3a82.788 82.788 0 0 1 3.359-5.57c1.3-1.99 2.076-3.467 2.346-4.463a6.994 6.994 0 0 0-1.958-6.903 7.156 7.156 0 0 0-6.05-1.873Zm2.43 1.392c1.046.211 1.966.71 2.768 1.51 1.139 1.14 1.679 2.431 1.679 4.051s-.388 2.506-2.624 5.991c-1.334 2.068-2.7 4.33-2.912 4.785-.059.135-.126.236-.151.236-.026-.008-.287-.43-.583-.953-.59-1.055-1.4-2.371-2.936-4.76-1.772-2.742-2.296-4.058-2.203-5.552.228-3.611 3.393-6.033 6.962-5.308Z"/><path fill="#000" d="M23.549 9.833c-1.536.372-2.844 1.696-3.215 3.249-.743 3.147 2.118 6.008 5.265 5.265 1.578-.37 2.886-1.679 3.258-3.257.742-3.164-2.144-6.025-5.308-5.257Z"/><path fill="#000" d="M11.836 15.9a2.02 2.02 0 0 0-1.097.946c-.388.717-7.687 19.298-7.73 19.661-.083.768.38 1.595 1.115 1.991l.346.186h11.89l.691-3.924c.389-2.16.7-3.991.71-4.075 0-.136-.17-.144-2.372-.144-1.35 0-2.43-.034-2.515-.084-.084-.043-.202-.194-.261-.338a.645.645 0 0 1 .304-.835c.143-.06 1.105-.093 2.995-.093 3.021 0 3.224.025 3.333.464.026.11-.295 2.135-.717 4.532a313.618 313.618 0 0 0-.768 4.43c0 .084 1.41.11 6.776.11h6.776l-.785-4.448c-.86-4.826-.852-4.801-.371-5.004.16-.059 1.122-.084 3.122-.067l2.895.025.16.203c.22.27.203.65-.05.894l-.203.211h-2.414c-1.324 0-2.405.025-2.405.068 0 .084 1.334 7.67 1.393 7.932l.05.194 6.008-.026 6.009-.025.346-.186c.734-.396 1.198-1.223 1.114-1.991-.06-.472-7.553-19.408-7.873-19.89a1.914 1.914 0 0 0-.676-.59c-.38-.194-.523-.21-1.628-.236l-1.215-.034.059.203c.034.11.472 1.485.979 3.071.506 1.578.92 2.962.92 3.063 0 .101-.093.279-.212.388l-.202.212h-4.827l-.202-.212a.62.62 0 0 1 0-.928l.202-.21h1.831c1.426 0 1.815-.026 1.78-.11-.016-.051-.311-.954-.64-2-1.207-3.78-1.089-3.477-1.368-3.443-.236.025-.27.076-.54.886a13.42 13.42 0 0 1-.506 1.291l-.21.422h.463c.389 0 .507.034.675.21a.658.658 0 0 1 .211.465c0 .16-.076.337-.21.464-.186.194-.262.21-1.072.21l-.87.01-.615.953-.608.953.295 1.89c.169 1.039.32 1.992.346 2.119l.051.236h5.814l.203.21c.134.128.21.305.21.465a.66.66 0 0 1-.21.464l-.203.211H26.57l-.262.371c-.928 1.308-2.497 1.308-3.426 0l-.262-.37h-9.763l-.202-.212a.62.62 0 0 1 0-.928l.202-.211h2.878c1.873 0 2.869-.034 2.869-.084 0-.051.152-1.03.337-2.194l.338-2.102-.574-.886-.565-.886-.895-.008c-.776 0-.928-.025-1.122-.177-.169-.135-.22-.245-.22-.498 0-.473.288-.675.946-.675h.49l-.212-.422a13.489 13.489 0 0 1-.506-1.291c-.27-.81-.304-.86-.54-.886-.279-.034-.16-.338-1.367 3.443-.33 1.046-.625 1.949-.641 2-.034.084.354.11 1.78.11h1.831l.203.21a.62.62 0 0 1 0 .928l-.203.212h-4.827l-.202-.212c-.118-.11-.211-.287-.211-.388 0-.101.413-1.485.92-3.063l.979-3.071.05-.186-1.122.009c-.726 0-1.232.042-1.435.118Zm-.776 11.713c.152.135.228.287.228.447 0 .135-.422 1.25-.928 2.481l-.937 2.236 2.7.042 2.7.043.16.202c.22.27.204.65-.05.895l-.202.21H8.132l-.203-.21c-.118-.11-.21-.296-.21-.405 0-.321 2.328-5.815 2.54-5.992.244-.202.531-.177.801.051Zm27.872-.05c.211.177 2.54 5.67 2.54 5.99 0 .11-.093.296-.211.406l-.203.21H34.46l-.202-.21a.654.654 0 0 1-.05-.895l.16-.202 2.7-.043 2.7-.042-.936-2.236c-.507-1.232-.929-2.346-.929-2.48 0-.161.076-.313.228-.448.27-.228.557-.253.802-.05ZM27 30.135c.203.186.236.33.59 2.641.212 1.342.38 2.532.38 2.642 0 .11-.092.287-.21.396-.262.27-.659.278-.912.017-.168-.16-.236-.464-.523-2.363l-.32-2.168h-2.752l-.05.27c-.026.151-.194 1.147-.371 2.21-.355 2.118-.405 2.245-.954 2.245-.287 0-.658-.33-.658-.582 0-.186.742-4.785.81-5.013a.816.816 0 0 1 .228-.312c.169-.16.303-.169 2.346-.169 2.134 0 2.177 0 2.396.186Z"/><path fill="#000" d="M20.342 23.462a67.11 67.11 0 0 0-.388 2.396c0 .025.439.042.97.042.532 0 .971-.017.971-.042 0-.059-.667-1.224-1.156-2.017-.312-.506-.363-.557-.397-.38Zm7.645 1.164c-.38.641-.692 1.19-.692 1.224 0 .025.422.05.937.05.844 0 .928-.017.886-.152-.026-.076-.11-.582-.186-1.114-.076-.531-.169-1.02-.194-1.071-.034-.068-.338.371-.751 1.063Z"/></svg>