<svg xmlns="http://www.w3.org/2000/svg" width="50" height="50" fill="none"><path fill="#000" d="M29.75 20.25v-9.5A4.75 4.75 0 0 0 25 6H10.75A4.75 4.75 0 0 0 6 10.75V44h38V27.375L29.75 20.25ZM13.125 35.687c0 .657-.531 1.188-1.188 1.188H9.563a1.187 1.187 0 0 1-1.188-1.188v-2.374c0-.657.531-1.188 1.188-1.188h2.374c.657 0 1.188.531 1.188 1.188v2.374Zm0-7.124c0 .656-.531 1.187-1.188 1.187H9.563a1.187 1.187 0 0 1-1.188-1.187v-2.376c0-.656.531-1.187 1.188-1.187h2.374c.657 0 1.188.531 1.188 1.187v2.376Zm0-7.126c0 .657-.531 1.188-1.188 1.188H9.563a1.187 1.187 0 0 1-1.188-1.188v-2.374c0-.657.531-1.188 1.188-1.188h2.374c.657 0 1.188.531 1.188 1.188v2.374Zm0-7.124c0 .656-.531 1.187-1.188 1.187H9.563a1.187 1.187 0 0 1-1.188-1.187v-2.376c0-.656.531-1.187 1.188-1.187h2.374c.657 0 1.188.531 1.188 1.187v2.376Zm7.125 21.374c0 .657-.531 1.188-1.187 1.188h-2.376a1.187 1.187 0 0 1-1.187-1.188v-2.374c0-.657.531-1.188 1.187-1.188h2.376c.656 0 1.187.531 1.187 1.188v2.374Zm0-7.124c0 .656-.531 1.187-1.187 1.187h-2.376a1.187 1.187 0 0 1-1.187-1.187v-2.376c0-.656.531-1.187 1.187-1.187h2.376c.656 0 1.187.531 1.187 1.187v2.376Zm0-7.126c0 .657-.531 1.188-1.187 1.188h-2.376a1.187 1.187 0 0 1-1.187-1.188v-2.374c0-.657.531-1.188 1.187-1.188h2.376c.656 0 1.187.531 1.187 1.188v2.374Zm0-7.124c0 .656-.531 1.187-1.187 1.187h-2.376a1.187 1.187 0 0 1-1.187-1.187v-2.376c0-.656.531-1.187 1.187-1.187h2.376c.656 0 1.187.531 1.187 1.187v2.376Zm7.125 21.374c0 .657-.531 1.188-1.188 1.188h-2.374a1.187 1.187 0 0 1-1.188-1.188v-2.374c0-.657.531-1.188 1.188-1.188h2.374c.657 0 1.188.531 1.188 1.188v2.374Zm0-7.124c0 .656-.531 1.187-1.188 1.187h-2.374a1.187 1.187 0 0 1-1.188-1.187v-2.376c0-.656.531-1.187 1.188-1.187h2.374c.657 0 1.188.531 1.188 1.187v2.376Zm0-7.126c0 .657-.531 1.188-1.188 1.188h-2.374a1.187 1.187 0 0 1-1.188-1.188v-2.374c0-.657.531-1.188 1.188-1.188h2.374c.657 0 1.188.531 1.188 1.188v2.374Zm0-7.124c0 .656-.531 1.187-1.188 1.187h-2.374a1.187 1.187 0 0 1-1.188-1.187v-2.376c0-.656.531-1.187 1.188-1.187h2.374c.657 0 1.188.531 1.188 1.187v2.376ZM39.25 41.625h-7.125v-8.312a3.564 3.564 0 0 1 7.125 0v8.312Z"/></svg>