<svg width="266" height="266" viewBox="0 0 266 266" fill="none" xmlns="http://www.w3.org/2000/svg">
<g clip-path="url(#clip0_2719_658)">
<path d="M133 264.5C205.625 264.5 264.5 205.625 264.5 133C264.5 60.3746 205.625 1.5 133 1.5C60.3746 1.5 1.5 60.3746 1.5 133C1.5 205.625 60.3746 264.5 133 264.5Z" stroke="black" style="stroke:black;stroke-opacity:1;" stroke-width="3"/>
<path d="M132 201C169.555 201 200 170.555 200 133C200 95.4446 169.555 65 132 65C94.4446 65 64 95.4446 64 133C64 170.555 94.4446 201 132 201Z" stroke="black" style="stroke:black;stroke-opacity:1;" stroke-width="3"/>
<path d="M119.5 122L145 146M120 122L99 166.5L145.5 146L166 99L120 122Z" stroke="black" style="stroke:black;stroke-opacity:1;" stroke-width="3"/>
</g>
<defs>
<clipPath id="clip0_2719_658">
<rect width="266" height="266" fill="white" style="fill:white;fill-opacity:1;"/>
</clipPath>
</defs>
</svg>
