<svg xmlns="http://www.w3.org/2000/svg" width="60" height="60" fill="none"><g clip-path="url(#a)"><circle cx="30" cy="30" r="30" fill="#fff"/><path fill="#000" d="M36.764 10a4.62 4.62 0 0 1 2.703.808 4.201 4.201 0 0 1 1.932 3.63v15.735c0 5.204-.028 10.413 0 15.62a4.438 4.438 0 0 1-3.53 4.44 5.03 5.03 0 0 1-.952.108c-4.812.002-9.63.004-14.455.004a4.438 4.438 0 0 1-4.377-3.478 4.336 4.336 0 0 1-.081-.912C18 35.434 18 24.915 18 14.402a4.41 4.41 0 0 1 3.958-4.357c.26-.03.52-.043.782-.044h14.024Zm-6.67 34.873a2.02 2.02 0 0 0-2.072.857 2.018 2.018 0 1 0 2.072-.857Zm-9.504-28.07c-.585 0-.807.23-.807.806v24.978c0 .593.23.806.807.806h18.227c.57 0 .808-.241.808-.806l.004-12.47V17.608c0-.568-.235-.806-.808-.806H20.59Z"/></g><defs><clipPath id="a"><path fill="#fff" d="M0 0h60v60H0z"/></clipPath></defs></svg>