<svg width="266" height="266" viewBox="0 0 266 266" fill="none" xmlns="http://www.w3.org/2000/svg">
<g clip-path="url(#clip0_2719_662)">
<path d="M133 264.5C205.625 264.5 264.5 205.625 264.5 133C264.5 60.3746 205.625 1.5 133 1.5C60.3746 1.5 1.5 60.3746 1.5 133C1.5 205.625 60.3746 264.5 133 264.5Z" stroke="black" style="stroke:black;stroke-opacity:1;" stroke-width="3"/>
<path d="M95.749 180.353V157.723C95.749 157.193 95.9597 156.684 96.3348 156.309C96.7099 155.934 97.2186 155.723 97.749 155.723H126.019C126.282 155.723 126.542 155.775 126.784 155.875C127.027 155.976 127.248 156.123 127.433 156.309C127.619 156.495 127.766 156.715 127.867 156.958C127.967 157.2 128.019 157.46 128.019 157.723V180.353C128.019 180.883 127.808 181.392 127.433 181.767C127.058 182.142 126.549 182.353 126.019 182.353H97.749C97.2186 182.353 96.7099 182.142 96.3348 181.767C95.9597 181.392 95.749 180.883 95.749 180.353ZM133.031 68L64.106 122.514C59.594 125.772 60.973 130.137 62.226 131.913C67.239 137.176 72.251 134.523 74.131 132.539L133.031 88.364L194.437 134.419C199.951 136.925 203.209 134.21 204.149 132.539C206.154 128.278 204.149 124.08 202.896 122.514L133.031 68Z" stroke="black" style="stroke:black;stroke-opacity:1;" stroke-width="3"/>
<path d="M74.4448 132.226V198.958H191.932V132.852" stroke="black" style="stroke:black;stroke-opacity:1;" stroke-width="3"/>
<path d="M138.357 198.958V153.53H172.82V198.958" stroke="black" style="stroke:black;stroke-opacity:1;" stroke-width="3"/>
<path d="M132.718 121.64C136.042 121.64 138.737 118.945 138.737 115.621C138.737 112.297 136.042 109.602 132.718 109.602C129.394 109.602 126.699 112.297 126.699 115.621C126.699 118.945 129.394 121.64 132.718 121.64Z" stroke="black" style="stroke:black;stroke-opacity:1;" stroke-width="3"/>
<path d="M107.736 159.5H100.457C99.6286 159.5 98.957 160.172 98.957 161V165.146C98.957 165.974 99.6286 166.646 100.457 166.646H107.736C108.564 166.646 109.236 165.974 109.236 165.146V161C109.236 160.172 108.564 159.5 107.736 159.5Z" stroke="black" style="stroke:black;stroke-opacity:1;"/>
<path d="M123.4 159.5H116.121C115.293 159.5 114.621 160.172 114.621 161V165.146C114.621 165.974 115.293 166.646 116.121 166.646H123.4C124.229 166.646 124.9 165.974 124.9 165.146V161C124.9 160.172 124.229 159.5 123.4 159.5Z" stroke="black" style="stroke:black;stroke-opacity:1;"/>
<path d="M123.4 172.032H116.121C115.293 172.032 114.621 172.704 114.621 173.532V177.678C114.621 178.507 115.293 179.178 116.121 179.178H123.4C124.229 179.178 124.9 178.507 124.9 177.678V173.532C124.9 172.704 124.229 172.032 123.4 172.032Z" stroke="black" style="stroke:black;stroke-opacity:1;"/>
<path d="M107.736 172.032H100.457C99.6286 172.032 98.957 172.704 98.957 173.532V177.678C98.957 178.507 99.6286 179.178 100.457 179.178H107.736C108.564 179.178 109.236 178.507 109.236 177.678V173.532C109.236 172.704 108.564 172.032 107.736 172.032Z" stroke="black" style="stroke:black;stroke-opacity:1;"/>
</g>
<defs>
<clipPath id="clip0_2719_662">
<rect width="266" height="266" fill="white" style="fill:white;fill-opacity:1;"/>
</clipPath>
</defs>
</svg>
