<svg width="266" height="266" viewBox="0 0 266 266" fill="none" xmlns="http://www.w3.org/2000/svg">
<g clip-path="url(#clip0_2719_655)">
<path d="M133 264.5C205.625 264.5 264.5 205.625 264.5 133C264.5 60.3746 205.625 1.5 133 1.5C60.3746 1.5 1.5 60.3746 1.5 133C1.5 205.625 60.3746 264.5 133 264.5Z" stroke="black" style="stroke:black;stroke-opacity:1;" stroke-width="3"/>
<path d="M128.812 176.375H130.312V174.875V116.25V114.75H128.812H99.5H98V116.25V174.875V176.375H99.5H128.812ZM166.5 176.375H168V174.875V116.25V114.75H166.5H137.188H135.688V116.25V174.875V176.375H137.188H166.5ZM91.125 84.25H174.875C176.698 84.25 178.447 84.9743 179.736 86.2636C181.026 87.553 181.75 89.3016 181.75 91.125V174.875C181.75 176.698 181.026 178.447 179.736 179.736C178.447 181.026 176.698 181.75 174.875 181.75H91.125C89.3016 181.75 87.553 181.026 86.2636 179.736C84.9743 178.447 84.25 176.698 84.25 174.875V91.125C84.25 89.3016 84.9743 87.553 86.2636 86.2636C87.553 84.9743 89.3016 84.25 91.125 84.25ZM141.375 93.8125H124.625C123.117 93.8125 121.67 94.4117 120.603 95.4783C119.537 96.5449 118.938 97.9916 118.938 99.5C118.938 101.008 119.537 102.455 120.603 103.522C121.67 104.588 123.117 105.188 124.625 105.188H141.375C142.883 105.188 144.33 104.588 145.397 103.522C146.463 102.455 147.062 101.008 147.062 99.5C147.062 97.9916 146.463 96.5449 145.397 95.4783C144.33 94.4117 142.883 93.8125 141.375 93.8125Z" stroke="black" style="stroke:black;stroke-opacity:1;" stroke-width="3"/>
</g>
<defs>
<clipPath id="clip0_2719_655">
<rect width="266" height="266" fill="white" style="fill:white;fill-opacity:1;"/>
</clipPath>
</defs>
</svg>
