<svg width="217" height="217" viewBox="0 0 217 217" fill="none" xmlns="http://www.w3.org/2000/svg">
<g clip-path="url(#clip0_2719_634)">
<mask id="mask0_2719_634" style="mask-type:luminance" maskUnits="userSpaceOnUse" x="0" y="0" width="217" height="217">
<path d="M217 0H0V217H217V0Z" fill="white" style="fill:white;fill-opacity:1;"/>
</mask>
<g mask="url(#mask0_2719_634)">
<path d="M108.5 215C167.318 215 215 167.318 215 108.5C215 49.6817 167.318 2 108.5 2C49.6817 2 2 49.6817 2 108.5C2 167.318 49.6817 215 108.5 215Z" stroke="black" style="stroke:black;stroke-opacity:1;" stroke-width="3"/>
<path d="M91.5391 126.041H99.5149" stroke="black" style="stroke:black;stroke-opacity:1;" stroke-width="3" stroke-linecap="round"/>
<path d="M55.3789 111.153C58.2148 110.444 65.269 108.388 68.672 103.709C72.9258 97.8598 79.3065 97.3281 92.0679 97.3281C102.277 97.3281 108.02 97.3281 109.615 97.3281C111.742 97.3281 117.484 98.7106 123.44 104.241C130.884 111.153 135.669 114.875 147.899 115.407C160.129 115.938 165.978 118.597 165.978 127.105C165.978 135.612 167.041 141.461 158.533 141.461" stroke="black" style="stroke:black;stroke-opacity:1;" stroke-width="3" stroke-linecap="round"/>
<path d="M144.711 115.103V91.4805" stroke="black" style="stroke:black;stroke-opacity:1;" stroke-width="3" stroke-linecap="round"/>
<path d="M127.695 76.5911V87.7573C127.695 88.4662 128.652 89.8842 132.481 89.8842C136.309 89.8842 155.345 89.8842 164.384 89.8842C165.093 90.0614 166.511 89.2461 166.511 84.5669C166.511 79.8877 166.511 61.7028 166.511 53.1952C166.511 52.309 165.66 50.6429 162.257 51.0683H130.886C129.822 51.0683 127.695 51.8127 127.695 54.7904C127.695 57.768 127.695 64.5386 127.695 67.5517" stroke="black" style="stroke:black;stroke-opacity:1;" stroke-width="3" stroke-linecap="round"/>
<path d="M150.027 115.358V92.0117" stroke="black" style="stroke:black;stroke-opacity:1;" stroke-width="3" stroke-linecap="round"/>
<path d="M147.369 151.563C153.536 151.563 158.536 146.564 158.536 140.397C158.536 134.23 153.536 129.231 147.369 129.231C141.202 129.231 136.203 134.23 136.203 140.397C136.203 146.564 141.202 151.563 147.369 151.563Z" stroke="black" style="stroke:black;stroke-opacity:1;" stroke-width="3"/>
<path d="M68.674 151.563C74.8409 151.563 79.8402 146.564 79.8402 140.397C79.8402 134.23 74.8409 129.231 68.674 129.231C62.5071 129.231 57.5078 134.23 57.5078 140.397C57.5078 146.564 62.5071 151.563 68.674 151.563Z" stroke="black" style="stroke:black;stroke-opacity:1;" stroke-width="3"/>
<path d="M57.5076 140.397L50.5952 137.739C50.0634 137.384 49 136.037 49 133.485C49 130.932 49 120.723 49 115.938C49 114.52 50.2761 111.578 55.3807 111.152" stroke="black" style="stroke:black;stroke-opacity:1;" stroke-width="3" stroke-linecap="round"/>
<path d="M136.203 141.461H79.8398" stroke="black" style="stroke:black;stroke-opacity:1;" stroke-width="3" stroke-linecap="round"/>
<path d="M147.903 145.183C150.84 145.183 153.22 142.803 153.22 139.866C153.22 136.929 150.84 134.549 147.903 134.549C144.967 134.549 142.586 136.929 142.586 139.866C142.586 142.803 144.967 145.183 147.903 145.183Z" stroke="black" style="stroke:black;stroke-opacity:1;" stroke-width="3"/>
<path d="M68.1415 146.248C71.0781 146.248 73.4587 143.868 73.4587 140.931C73.4587 137.994 71.0781 135.614 68.1415 135.614C65.2048 135.614 62.8242 137.994 62.8242 140.931C62.8242 143.868 65.2048 146.248 68.1415 146.248Z" stroke="black" style="stroke:black;stroke-opacity:1;" stroke-width="3"/>
<path d="M73.9901 119.662H64.9508C63.1784 119.307 60.4843 117.854 63.8873 114.876C68.1411 111.154 68.1413 113.281 72.9268 107.964C77.7123 102.646 86.7517 103.71 93.1324 103.71C98.2369 103.71 105.894 103.71 109.084 103.71C110.325 103.533 114.508 104.454 121.314 109.559C128.12 114.663 131.948 117.712 133.012 118.598L83.5613 119.13" stroke="black" style="stroke:black;stroke-opacity:1;" stroke-width="3" stroke-linecap="round"/>
<path d="M92.6016 103.709V118.941" stroke="black" style="stroke:black;stroke-opacity:1;" stroke-width="3" stroke-linecap="round"/>
<path d="M141.312 78.2538V60.7993H147.535C148.893 60.7993 150.018 61.0464 150.91 61.5407C151.802 62.0351 152.469 62.7112 152.913 63.5691C153.356 64.4214 153.577 65.3816 153.577 66.4498C153.577 67.5237 153.353 68.4896 152.904 69.3476C152.461 70.1998 151.79 70.876 150.893 71.376C150.001 71.8703 148.877 72.1174 147.525 72.1174H143.247V69.8845H147.288C148.146 69.8845 148.842 69.7368 149.376 69.4413C149.91 69.1402 150.301 68.7311 150.551 68.214C150.801 67.697 150.926 67.1089 150.926 66.4498C150.926 65.7907 150.801 65.2055 150.551 64.6941C150.301 64.1828 149.907 63.7822 149.367 63.4924C148.833 63.2027 148.128 63.0578 147.253 63.0578H143.947V78.2538H141.312Z" fill="black" style="fill:black;fill-opacity:1;"/>
<path d="M141.312 78.2538H140.812V78.7538H141.312V78.2538ZM141.312 60.7993V60.2993H140.812V60.7993H141.312ZM152.913 63.5691L152.467 63.7986L152.469 63.7998L152.913 63.5691ZM152.904 69.3476L152.461 69.1158L152.46 69.1169L152.904 69.3476ZM143.247 72.1174H142.747V72.6174H143.247V72.1174ZM143.247 69.8845V69.3845H142.747V69.8845H143.247ZM149.376 69.4413L149.618 69.8788L149.62 69.8768L149.376 69.4413ZM149.367 63.4924L149.129 63.9319L149.131 63.933L149.367 63.4924ZM143.947 63.0578V62.5578H143.447V63.0578H143.947ZM143.947 78.2538V78.7538H144.447V78.2538H143.947ZM141.812 78.2538V60.7993H140.812V78.2538H141.812ZM141.312 61.2993H147.535V60.2993H141.312V61.2993ZM147.535 61.2993C148.835 61.2993 149.87 61.5362 150.667 61.9781L151.152 61.1034C150.165 60.5566 148.95 60.2993 147.535 60.2993V61.2993ZM150.667 61.9781C151.478 62.4274 152.072 63.0334 152.467 63.7986L153.357 63.3397C152.866 62.389 152.125 61.6427 151.152 61.1034L150.667 61.9781ZM152.469 63.7998C152.871 64.5732 153.077 65.4528 153.077 66.4498H154.077C154.077 65.3105 153.839 64.2697 153.355 63.3385L152.469 63.7998ZM153.077 66.4498C153.077 67.4519 152.869 68.3369 152.461 69.1158L153.346 69.5793C153.836 68.6423 154.077 67.5955 154.077 66.4498H153.077ZM152.46 69.1169C152.066 69.8762 151.467 70.4833 150.648 70.9391L151.135 71.8133C152.112 71.2691 152.856 70.5235 153.348 69.5782L152.46 69.1169ZM150.65 70.9386C149.853 71.3806 148.819 71.6174 147.525 71.6174V72.6174C148.936 72.6174 150.149 72.36 151.135 71.8133L150.65 70.9386ZM147.525 71.6174H143.247V72.6174H147.525V71.6174ZM143.747 72.1174V69.8845H142.747V72.1174H143.747ZM143.247 70.3845H147.288V69.3845H143.247V70.3845ZM147.288 70.3845C148.198 70.3845 148.986 70.2285 149.618 69.8788L149.133 69.0038C148.697 69.245 148.093 69.3845 147.288 69.3845V70.3845ZM149.62 69.8768C150.237 69.5292 150.704 69.0469 151.002 68.4317L150.102 67.9964C149.899 68.4153 149.582 68.7511 149.13 69.0058L149.62 69.8768ZM151.002 68.4317C151.289 67.8374 151.426 67.1732 151.426 66.4498H150.426C150.426 67.0447 150.314 67.5566 150.102 67.9964L151.002 68.4317ZM151.426 66.4498C151.426 65.7266 151.289 65.0643 151.001 64.4745L150.103 64.9138C150.314 65.3467 150.426 65.8548 150.426 66.4498H151.426ZM151.001 64.4745C150.701 63.8618 150.228 63.3872 149.604 63.0519L149.131 63.933C149.586 64.1772 149.902 64.5038 150.103 64.9138L151.001 64.4745ZM149.605 63.053C148.972 62.7098 148.177 62.5578 147.253 62.5578V63.5578C148.079 63.5578 148.693 63.6955 149.129 63.9319L149.605 63.053ZM147.253 62.5578H143.947V63.5578H147.253V62.5578ZM143.447 63.0578V78.2538H144.447V63.0578H143.447ZM143.947 77.7538H141.312V78.7538H143.947V77.7538Z" fill="black" style="fill:black;fill-opacity:1;"/>
</g>
</g>
<defs>
<clipPath id="clip0_2719_634">
<rect width="217" height="217" fill="white" style="fill:white;fill-opacity:1;"/>
</clipPath>
</defs>
</svg>
