<svg xmlns="http://www.w3.org/2000/svg" width="60" height="60" fill="none"><g clip-path="url(#a)"><circle cx="30" cy="30" r="30" fill="#fff"/><path fill="#000" d="M14.77 18c-.364 0-.708.076-1.025.202L29.41 31.89c.677.591 1.398.591 2.077 0l15.692-13.688A2.772 2.772 0 0 0 46.154 18H14.769Zm-2.741 2.38a2.872 2.872 0 0 0-.029.39v18.46A2.763 2.763 0 0 0 14.77 42h31.384a2.763 2.763 0 0 0 2.77-2.77V20.77c0-.132-.012-.264-.03-.39l-15.591 13.6a4.362 4.362 0 0 1-5.712 0L12.03 20.38Z"/></g><defs><clipPath id="a"><path fill="#fff" d="M0 0h60v60H0z"/></clipPath></defs></svg>