<svg xmlns="http://www.w3.org/2000/svg" width="25" height="25" fill="none"><path fill="#000" fill-rule="evenodd" d="M12.5 25C19.404 25 25 19.404 25 12.5S19.404 0 12.5 0 0 5.596 0 12.5 5.596 25 12.5 25Zm.151-3.862.296-2.302c-2.684.184-4.561-1.393-5.164-2.204-2.71-3.448-.932-6.941.296-8.257l1.71 1.678L10.843 4 4.757 5.086 6.4 6.73C4.481 8.678 4 11.094 4 12.06c0 7.838 5.9 9.232 8.651 9.078Zm.198-16.78-.296 2.304c2.684-.185 4.561 1.392 5.164 2.203 2.71 3.448.932 6.941-.296 8.257l-1.71-1.678-1.053 6.053 6.086-1.085-1.645-1.645c1.92-1.948 2.401-4.342 2.401-5.33 0-7.664-5.899-9.232-8.651-9.078Z" clip-rule="evenodd"/></svg>